<?xml version="1.0" encoding="UTF-8"?>
<svg version="1.1" xmlns="http://www.w3.org/2000/svg" width="925" height="350">
<path d="M0 0 C305.25 0 610.5 0 925 0 C925 115.5 925 231 925 350 C619.75 350 314.5 350 0 350 C0 234.5 0 119 0 0 Z " fill="#FEFEFE" transform="translate(0,0)"/>
<path d="M0 0 C3.13726115 2.74510351 4.92554635 5.05693972 7 8.625 C7.03738281 7.86574219 7.07476563 7.10648438 7.11328125 6.32421875 C7.17902344 5.33035156 7.24476563 4.33648437 7.3125 3.3125 C7.37050781 2.32636719 7.42851563 1.34023437 7.48828125 0.32421875 C8.05642746 -2.6726441 8.50637706 -3.6631307 11 -5.375 C12.9375 -5.80859375 12.9375 -5.80859375 15 -5.8125 C16.0209375 -5.84150391 16.0209375 -5.84150391 17.0625 -5.87109375 C19 -5.375 19 -5.375 20.5978241 -3.82519531 C22.51437595 -0.47616731 22.41192811 2.57117685 22.37231445 6.32421875 C22.37596512 7.09556656 22.37961578 7.86691437 22.38337708 8.66163635 C22.39148203 11.21214835 22.37786321 13.76202435 22.36328125 16.3125 C22.36276221 18.09407552 22.3632816 19.87565161 22.36479187 21.65722656 C22.36470212 25.39640834 22.3542752 29.13537467 22.33618164 32.87451172 C22.31362612 37.63756987 22.31292627 42.40030967 22.31969929 47.16340637 C22.32306479 50.84746055 22.31635882 54.53144394 22.30657005 58.21548462 C22.30275213 59.9695295 22.3015555 61.72358231 22.3031559 63.47763062 C22.30716539 89.78715531 22.30716539 89.78715531 15 100.625 C14.401875 101.5325 13.80375 102.44 13.1875 103.375 C5.3697942 111.41606883 -4.31597177 113.64232701 -15.203125 113.91748047 C-27.8660896 114.03093798 -43.2981639 112.8047642 -53 103.625 C-54.3125 99.9375 -54.3125 99.9375 -54 96.625 C-53 94.625 -53 94.625 -51 93.625 C-46.90533865 93.70528748 -43.81349927 94.60483304 -40.25 96.5 C-30.57640247 101.57771211 -18.99349038 103.76426505 -8.28515625 100.8984375 C-1.97169324 98.31422469 2.24135557 94.64228885 5.3125 88.5 C8.28712934 80.66322552 7.30438761 71.8603758 7 63.625 C6.66250732 64.17776611 6.32501465 64.73053223 5.97729492 65.30004883 C1.50029675 72.41319472 -5.40431264 76.16602905 -13.45703125 78.265625 C-24.35337544 79.80550774 -34.6447445 79.25941984 -43.7265625 72.63671875 C-53.42202443 64.35696587 -58.22887681 55.19681194 -60 42.625 C-60.88519526 29.67050788 -59.22587049 17.05867988 -51 6.625 C-37.21750741 -7.8490872 -17.24676742 -11.3388322 0 0 Z " fill="#118E9F" transform="translate(650,117.375)"/>
<path d="M0 0 C2.15614319 1.32983398 2.15614319 1.32983398 4 4 C4.60976374 7.73505764 4.5354351 11.44564745 4.50170898 15.22265625 C4.50981346 16.94027664 4.50981346 16.94027664 4.51808167 18.69259644 C4.53060281 22.48282611 4.51405437 26.27230124 4.49609375 30.0625 C4.49624866 32.69279012 4.49773627 35.32308047 4.50050354 37.95336914 C4.5032049 43.46802605 4.48973667 48.98246522 4.46655273 54.49707031 C4.43994324 60.8705611 4.43819605 67.24368785 4.4499411 73.61721516 C4.4607246 79.75111973 4.45442648 85.88487165 4.44038582 92.01876831 C4.43586356 94.62791561 4.43554124 97.23707363 4.43945122 99.84622192 C4.44235549 103.4901539 4.42589286 107.13348732 4.40405273 110.77734375 C4.40855438 111.86006561 4.41305603 112.94278748 4.41769409 114.05831909 C4.40778946 115.05090729 4.39788483 116.04349548 4.38768005 117.06616211 C4.38525016 117.92745224 4.38282026 118.78874237 4.38031673 119.6761322 C3.91557817 122.51584679 2.94010784 123.90440967 1 126 C-1.73070749 126.74874238 -4.23438448 126.54850412 -7 126 C-9.46651307 124.17000644 -9.877749 122.71027829 -10.390625 119.73046875 C-10.65917453 117.48666674 -10.8602582 115.25514359 -11 113 C-11.66 113.886875 -12.32 114.77375 -13 115.6875 C-17.30700902 120.86325232 -24.21591139 125.51860396 -31.03320312 126.20458984 C-33.44218661 126.30556213 -35.83899119 126.32193274 -38.25 126.3125 C-39.46236328 126.33666992 -39.46236328 126.33666992 -40.69921875 126.36132812 C-50.33630689 126.3690378 -57.37447867 123.52557868 -64.703125 117.30078125 C-74.24711787 107.7405571 -76.94311288 94.76221094 -77.1875 81.6875 C-77.01979785 69.41729245 -73.93238295 58.00215692 -65.85546875 48.46875 C-57.16400496 40.31003793 -47.99473186 37.65857841 -36.31640625 37.7890625 C-28.10032158 38.31164032 -21.30215444 41.77029631 -15 47 C-13.65012933 48.65330116 -12.31487333 50.31873153 -11 52 C-10.99635437 51.40753479 -10.99270874 50.81506958 -10.98895264 50.20465088 C-10.94715293 44.04000577 -10.87782542 37.87610694 -10.79248047 31.71191406 C-10.76424896 29.41120873 -10.74304534 27.11040601 -10.72900391 24.80957031 C-10.70760514 21.50274721 -10.66096892 18.19709774 -10.609375 14.890625 C-10.60814636 13.86132874 -10.60691772 12.83203247 -10.60565186 11.77154541 C-10.45964464 4.65805589 -10.45964464 4.65805589 -8.14941406 1.35058594 C-5.18514202 -0.51201662 -3.43636372 -0.57272729 0 0 Z " fill="#0F8D9E" transform="translate(331,73)"/>
<path d="M0 0 C6.24249976 4.83034865 9.40340126 12.03739789 10.84765625 19.6796875 C11.14150892 24.09017799 11.12794518 28.49118726 11.11328125 32.91015625 C11.1151947 34.17813553 11.11710815 35.44611481 11.11907959 36.7525177 C11.12043721 39.42458938 11.11778378 42.09629192 11.10839844 44.76831055 C11.09696987 48.18800318 11.10359484 51.60738298 11.11554337 55.02706432 C11.12451295 58.30060617 11.11823242 61.57411033 11.11328125 64.84765625 C11.11732971 66.07373093 11.12137817 67.2998056 11.12554932 68.56303406 C11.11609283 70.27049553 11.11609283 70.27049553 11.10644531 72.01245117 C11.10485413 73.01281906 11.10326294 74.01318695 11.10162354 75.04386902 C10.83923319 77.76710684 10.33016165 79.39568502 8.84765625 81.6796875 C6.04895598 83.07903763 3.94266833 82.93234155 0.84765625 82.6796875 C-2.03648239 80.49916722 -2.68285857 78.47926266 -3.33984375 74.9921875 C-3.49839844 74.18394531 -3.65695312 73.37570313 -3.8203125 72.54296875 C-3.92988281 71.92808594 -4.03945313 71.31320313 -4.15234375 70.6796875 C-4.49265625 71.13859375 -4.83296875 71.5975 -5.18359375 72.0703125 C-9.68130792 77.76422725 -14.3376256 80.40811478 -21.15234375 82.6796875 C-31.44100736 83.40497094 -40.39466305 83.85313455 -49.15234375 77.6796875 C-50.54453125 76.8134375 -50.54453125 76.8134375 -51.96484375 75.9296875 C-57.13138586 70.6155299 -60.26655811 63.89137279 -60.46484375 56.4921875 C-60.37118433 50.03820198 -59.00938749 45.63756808 -54.4921875 40.9609375 C-43.79624658 32.00006708 -28.8381161 32.52300341 -15.65234375 32.6171875 C-13.84636719 32.62395508 -13.84636719 32.62395508 -12.00390625 32.63085938 C-9.05333302 32.642568 -6.10286516 32.65896755 -3.15234375 32.6796875 C-3.02137745 20.84110053 -3.02137745 20.84110053 -8.15234375 10.6796875 C-13.32790666 7.90475976 -17.57807379 7.16140522 -23.40234375 7.2421875 C-24.14452148 7.24686035 -24.88669922 7.2515332 -25.65136719 7.25634766 C-32.05411455 7.42718018 -37.34877834 8.97530498 -43.15234375 11.6796875 C-46.6861199 13.17616031 -49.27500265 14.20365251 -53.15234375 13.6796875 C-55.15234375 10.6796875 -55.15234375 10.6796875 -55.77734375 7.8046875 C-55.06913966 4.26366705 -54.75767372 3.97403794 -51.90234375 2.0546875 C-36.54129425 -6.43359297 -15.55224605 -9.54021627 0 0 Z " fill="#128E9F" transform="translate(459.15234375,116.3203125)"/>
<path d="M0 0 C6.88080064 3.82266702 11.24552656 9.26394562 13.55996704 16.83074951 C15.20237575 23.53993997 15.32276237 30.06974645 15.3359375 36.953125 C15.3459227 38.78070343 15.3459227 38.78070343 15.35610962 40.64520264 C15.36618952 43.20681252 15.37092809 45.76844843 15.37060547 48.33007812 C15.37500195 52.2517362 15.41143691 56.1722889 15.44921875 60.09375 C15.45508314 62.58853783 15.45905506 65.08333099 15.4609375 67.578125 C15.47530853 68.74901672 15.48967957 69.91990845 15.50448608 71.12628174 C15.4591212 79.17509611 15.4591212 79.17509611 13.19384766 83.24511719 C11 85 11 85 7.4375 85.5 C4 85 4 85 2.125 83.625 C-0.06323807 80.46421167 -0.12858155 78.3946452 -0.1418457 74.57568359 C-0.14888016 73.44045258 -0.15591461 72.30522156 -0.16316223 71.1355896 C-0.16732651 69.90232941 -0.17149078 68.66906921 -0.17578125 67.3984375 C-0.19898703 64.79816906 -0.22310467 62.19790862 -0.24804688 59.59765625 C-0.28437066 55.4897466 -0.3141596 51.38198442 -0.32592773 47.27392578 C-0.33801101 43.31515154 -0.38167611 39.35698767 -0.42578125 35.3984375 C-0.42387283 34.17732269 -0.42196442 32.95620789 -0.41999817 31.6980896 C-0.52037168 24.67329223 -1.16426495 19.9489997 -5 14 C-10.48819429 9.12160508 -16.2473402 9.40247046 -23.3984375 9.62109375 C-30.73836454 10.39329866 -34.92932211 13.33365654 -39.67578125 18.828125 C-44.1537482 26.17251917 -44.42914117 32.86988253 -44.40625 41.26953125 C-44.41708618 42.42748703 -44.42792236 43.58544281 -44.43908691 44.77848816 C-44.48483109 49.70864973 -44.49649105 54.63875575 -44.51123047 59.5690918 C-44.52686987 63.17776475 -44.5598411 66.78599139 -44.59375 70.39453125 C-44.59072876 71.51326126 -44.58770752 72.63199127 -44.58459473 73.78462219 C-44.59470581 74.81967392 -44.60481689 75.85472565 -44.61523438 76.92114258 C-44.61831604 78.28726433 -44.61831604 78.28726433 -44.62145996 79.6809845 C-45.0727905 82.44592985 -45.79276254 83.32814374 -48 85 C-49.9375 85.43359375 -49.9375 85.43359375 -52 85.4375 C-52.680625 85.45683594 -53.36125 85.47617188 -54.0625 85.49609375 C-56 85 -56 85 -57.59683228 83.4533844 C-59.51968295 80.09135449 -59.41957343 77.01778572 -59.38818359 73.24975586 C-59.39344055 72.47370499 -59.39869751 71.69765411 -59.40411377 70.89808655 C-59.41730144 68.33679999 -59.40858115 65.77613646 -59.3984375 63.21484375 C-59.40045839 61.43412659 -59.40336995 59.65341024 -59.40713501 57.87269592 C-59.41155651 54.14283357 -59.40513217 50.41318688 -59.39111328 46.68334961 C-59.37400902 41.89914536 -59.38387143 37.11544553 -59.40183067 32.33125973 C-59.41266264 28.65528043 -59.4092251 24.97942107 -59.4014473 21.30343819 C-59.3994443 19.53915917 -59.40190803 17.77486931 -59.40888596 16.01060295 C-59.41649224 13.54705757 -59.40490897 11.08433369 -59.38818359 8.62084961 C-59.39425629 7.88986053 -59.40032898 7.15887146 -59.40658569 6.4057312 C-59.34451869 1.47912592 -59.34451869 1.47912592 -57.59683228 -0.95140076 C-55.60638974 -2.25847387 -54.37089447 -2.40194198 -52 -2.375 C-50.9790625 -2.38660156 -50.9790625 -2.38660156 -49.9375 -2.3984375 C-47.36767178 -1.86996476 -46.52647707 -1.12599979 -45 1 C-44.48828125 3.48046875 -44.48828125 3.48046875 -44.3125 6.1875 C-44.21388672 7.53908203 -44.21388672 7.53908203 -44.11328125 8.91796875 C-44.07589844 9.60503906 -44.03851563 10.29210937 -44 11 C-43.5875 10.46890625 -43.175 9.9378125 -42.75 9.390625 C-38.67659662 4.4079798 -35.02909343 1.27640537 -29 -1 C-28.05769531 -1.35707031 -27.11539063 -1.71414062 -26.14453125 -2.08203125 C-17.53617494 -4.59502968 -8.18214872 -3.47481452 0 0 Z " fill="#128E9F" transform="translate(555,114)"/>
<path d="M0 0 C7.00724619 3.79514998 11.03262865 9.40872996 14.08984375 16.640625 C16.9560892 27.6149882 16.32796104 41.92785164 10.95703125 51.9609375 C6.6157029 58.40460403 1.66845609 62.36071338 -6.04296875 63.9609375 C-13.46073634 64.60734296 -19.97157506 64.64533177 -26.04296875 59.9609375 C-33.27005002 53.11269516 -36.9031097 46.19234351 -37.28125 36.23046875 C-37.51178413 24.82372355 -37.27458413 16.36881222 -30.85546875 6.6484375 C-22.23347728 -1.59035435 -11.42548369 -3.90138467 0 0 Z " fill="#FCFEFE" transform="translate(306.04296875,124.0390625)"/>
<path d="M0 0 C0.77085937 -0.0515625 1.54171875 -0.103125 2.3359375 -0.15625 C5.79780024 0.83622942 6.94907101 3.50373535 8.625 6.5 C10.02510122 9.47584799 11.24438681 12.51248333 12.453125 15.5703125 C12.80582458 16.44662323 13.15852417 17.32293396 13.52191162 18.22579956 C14.64600493 21.02301747 15.7606518 23.82388764 16.875 26.625 C17.60745025 28.45207266 18.3405183 30.27889778 19.07421875 32.10546875 C20.89569774 36.64457982 22.70929673 41.18678879 24.52026367 45.73010254 C26.40033212 50.44398466 28.28642167 55.15545728 30.171875 59.8671875 C30.84214917 61.54279528 31.51239927 63.21841269 32.18261719 64.89404297 C32.65860352 66.08400879 33.13458984 67.27397461 33.625 68.5 C38.70824279 57.85094331 43.18645283 46.99127737 47.625 36.0625 C55.5534532 16.58163598 55.5534532 16.58163598 59 8.40234375 C59.46148438 7.30269287 59.92296875 6.20304199 60.3984375 5.07006836 C61.625 2.5 61.625 2.5 63.625 0.5 C70.55703883 -0.05016181 70.55703883 -0.05016181 73.6875 1.5625 C75.18122921 4.64954037 74.24865236 7.19294182 73.625 10.5 C72.57202148 13.46142578 72.57202148 13.46142578 71.24609375 16.4453125 C70.74553467 17.58492432 70.24497559 18.72453613 69.72924805 19.89868164 C69.17368084 21.14079468 68.61809764 22.38290057 68.0625 23.625 C67.47925291 24.94675589 66.89700296 26.26895217 66.31567383 27.59155273 C65.07103941 30.42198369 63.82268936 33.25073558 62.57226562 36.07861328 C59.61162652 42.78685685 56.7129962 49.52191208 53.809021 56.25482178 C52.81004494 58.56818528 51.80807182 60.88022799 50.80517578 63.19189453 C47.61663165 70.54541862 44.4456216 77.90525987 41.32969666 85.28990173 C39.88675073 88.7070859 38.43501166 92.12050198 36.98257446 95.53366089 C36.29226842 97.16275896 35.60628781 98.79369744 34.92489624 100.42654419 C33.97775562 102.69540199 33.01589103 104.95748926 32.05078125 107.21875 C31.7774295 107.88474716 31.50407776 108.55074432 31.22244263 109.23692322 C29.36721049 113.53056466 27.26273509 116.54378877 23.625 119.5 C19.9375 119.5 19.9375 119.5 16.625 118.5 C14.38329067 115.137436 14.43813389 113.69825011 15.04199219 109.80078125 C16.37661757 104.53381742 19.10926932 99.74072099 21.5625 94.921875 C21.96726562 94.08140625 22.37203125 93.2409375 22.7890625 92.375 C23.16498535 91.62992187 23.5409082 90.88484375 23.92822266 90.1171875 C25.88779558 82.75677342 22.46637361 76.06114704 19.50390625 69.46484375 C19.08511703 68.50969376 18.66632782 67.55454376 18.23484802 66.57044983 C16.8955216 63.52170831 15.54192034 60.47956149 14.1875 57.4375 C13.3121764 55.45290355 12.43781958 53.46788039 11.56445312 51.48242188 C11.13184174 50.50028717 10.69923035 49.51815247 10.25350952 48.5062561 C9.37831046 46.51926212 8.50349393 44.5320996 7.62905884 42.54476929 C5.36157127 37.40078662 3.06852406 32.27062628 0.73388672 27.15673828 C-0.18922168 25.10583661 -1.11223916 23.05489402 -2.03515625 21.00390625 C-2.47121689 20.06659164 -2.90727753 19.12927704 -3.35655212 18.16355896 C-5.81429905 12.65924518 -7.06526173 8.54223565 -6.375 2.5 C-4.00531893 0.13031893 -3.25486199 0.12976194 0 0 Z " fill="#118E9F" transform="translate(795.375,111.5)"/>
<path d="M0 0 C3.125 0.375 3.125 0.375 5.5625 2 C7.125 4.375 7.125 4.375 7.125 7.4375 C6.125 10.375 6.125 10.375 4.4375 12.3125 C1.34024075 13.73556506 -0.62966007 13.18633498 -3.875 12.375 C-4.205 11.385 -4.535 10.395 -4.875 9.375 C-14.56932602 9.43679764 -24.26337262 9.51430938 -33.95741653 9.61071491 C-38.46101266 9.65503356 -42.96452625 9.69436871 -47.46826172 9.72143555 C-74.82900537 9.68899047 -74.82900537 9.68899047 -101.875 13.375 C-102.56268463 13.51955124 -103.25036926 13.66410248 -103.95889282 13.81303406 C-126.6552436 18.64058684 -147.65718425 32.21632483 -160.875 51.375 C-177.15694438 78.48963065 -179.62367458 109.60096557 -172.0625 139.9375 C-165.65070406 162.93479025 -152.3841205 182.19811749 -131.80078125 194.74609375 C-121.98645219 200.21014611 -111.97529898 204.57170915 -100.875 206.375 C-100.96847175 200.30579568 -101.07455179 194.23699326 -101.19238281 188.16821289 C-101.23069348 186.10317035 -101.26554266 184.0380606 -101.296875 181.97290039 C-101.34248014 179.00642862 -101.40048201 176.0404204 -101.4609375 173.07421875 C-101.47248871 172.1491301 -101.48403992 171.22404144 -101.49594116 170.2709198 C-101.51581085 169.41025406 -101.53568054 168.54958832 -101.55615234 167.6628418 C-101.56947601 166.90561325 -101.58279968 166.1483847 -101.5965271 165.36820984 C-101.77208612 163.05894812 -101.77208612 163.05894812 -103.875 160.375 C-104.20002803 157.25473093 -104.38651479 155.22752465 -102.75 152.5 C-99.95053259 150.82031955 -98.07695936 150.91757723 -94.875 151.375 C-92.04328758 153.38700619 -91.02512137 154.49571767 -90.4375 157.9375 C-90.875 160.375 -90.875 160.375 -92.37631226 161.72592163 C-94.38363007 163.93467018 -94.26374455 165.24292066 -94.29150391 168.19775391 C-94.30807037 169.17531647 -94.32463684 170.15287903 -94.34170532 171.1600647 C-94.34495819 172.21325897 -94.34821106 173.26645325 -94.3515625 174.3515625 C-94.36714203 175.43255219 -94.38272156 176.51354187 -94.39877319 177.62728882 C-94.44637309 181.08485188 -94.47408818 184.54221202 -94.5 188 C-94.53643107 191.46478683 -94.5769894 194.92945711 -94.62265015 198.39413452 C-94.6499782 200.55196336 -94.67128491 202.70987795 -94.68618774 204.86782837 C-94.70158096 206.32471573 -94.70158096 206.32471573 -94.71728516 207.81103516 C-94.72702866 209.09985092 -94.72702866 209.09985092 -94.73696899 210.41470337 C-94.875 212.375 -94.875 212.375 -95.875 213.375 C-120.42233217 212.12683057 -141.93096028 198.03162941 -158.4375 180.75 C-178.01563675 158.30592789 -184.55185828 128.542221 -183.10253906 99.41455078 C-181.15676995 73.4222488 -171.38165128 50.69658476 -152.875 32.375 C-152.09640625 31.57449219 -151.3178125 30.77398437 -150.515625 29.94921875 C-127.85960297 7.93942554 -94.95136367 2.93543102 -64.7109375 2.93359375 C-62.97310298 2.92177637 -61.23527844 2.90840183 -59.49746704 2.89356995 C-54.997281 2.85794037 -50.49718372 2.83733307 -45.99688721 2.82202148 C-38.73391904 2.79684599 -31.47114606 2.75762733 -24.20836258 2.70012093 C-21.68332494 2.68381899 -19.15847602 2.6800212 -16.63339233 2.67710876 C-15.10113182 2.66734333 -13.56887437 2.65708187 -12.03662109 2.64624023 C-11.3365242 2.64879318 -10.63642731 2.65134613 -9.91511536 2.65397644 C-5.55228253 2.6073258 -3.96667729 0.51739269 0 0 Z " fill="#7A7A7A" transform="translate(208.875,59.625)"/>
<path d="M0 0 C6.86823312 5.4482838 10.86974148 11.7858611 12.73828125 20.37890625 C13.68981471 30.59283505 12.61857993 40.7141132 6.73828125 49.37890625 C1.57290704 54.99680256 -3.11124793 57.99008219 -10.84765625 58.71484375 C-19.41183214 58.80313422 -25.35927729 58.60396118 -31.9296875 52.94140625 C-39.53510924 45.1294175 -40.84762622 35.39754645 -40.73657227 24.95092773 C-40.39281392 15.93988842 -37.76713781 8.73303649 -31.26171875 2.37890625 C-22.64433937 -3.65714102 -9.32422119 -5.73030296 0 0 Z " fill="#FCFDFE" transform="translate(645.26171875,125.62109375)"/>
<path d="M0 0 C5.10750576 -0.12457331 5.10750576 -0.12457331 7.34765625 0.12109375 C8.00765625 0.78109375 8.66765625 1.44109375 9.34765625 2.12109375 C8.88611779 8.58263221 8.88611779 8.58263221 6.34765625 11.12109375 C4.10786579 11.48290605 1.85445522 11.76279597 -0.40234375 11.99609375 C-6.02146113 12.74301119 -9.52662359 13.21251676 -13.65234375 17.12109375 C-17.63759713 22.39886174 -18.76290547 26.28776998 -19.21484375 32.80859375 C-19.29863281 33.98808594 -19.38242187 35.16757813 -19.46875 36.3828125 C-19.55962891 37.73826172 -19.55962891 37.73826172 -19.65234375 39.12109375 C-19.00160889 39.1053833 -18.35087402 39.08967285 -17.68041992 39.07348633 C-14.73364951 39.01114726 -11.78701777 38.97210691 -8.83984375 38.93359375 C-7.81568359 38.90845703 -6.79152344 38.88332031 -5.73632812 38.85742188 C-4.26196289 38.84291992 -4.26196289 38.84291992 -2.7578125 38.828125 C-1.85184326 38.81241455 -0.94587402 38.7967041 -0.01245117 38.78051758 C2.34765625 39.12109375 2.34765625 39.12109375 4.1394043 40.4831543 C5.34765625 42.12109375 5.34765625 42.12109375 5.78515625 44.62109375 C5.34765625 47.12109375 5.34765625 47.12109375 3.63183594 48.7590332 C0.95063719 50.35783694 -0.53906864 50.47072683 -3.63671875 50.4140625 C-4.57128906 50.40439453 -5.50585938 50.39472656 -6.46875 50.38476562 C-7.43683594 50.35962891 -8.40492188 50.33449219 -9.40234375 50.30859375 C-10.38589844 50.29505859 -11.36945312 50.28152344 -12.3828125 50.26757812 C-14.8065479 50.23228101 -17.2291652 50.18297429 -19.65234375 50.12109375 C-19.6434613 51.00170471 -19.63457886 51.88231567 -19.62542725 52.78961182 C-19.54528174 61.08821734 -19.48437959 69.38669291 -19.44509506 77.68559647 C-19.42421942 81.95218667 -19.39590266 86.21845711 -19.35058594 90.48486328 C-19.30712665 94.60216159 -19.28320647 98.71915232 -19.27283478 102.83666229 C-19.26544348 104.40757845 -19.25100987 105.97847777 -19.22942352 107.549263 C-19.20038693 109.74968344 -19.19638763 111.94883288 -19.19824219 114.14941406 C-19.18935974 115.40183899 -19.18047729 116.65426392 -19.17132568 117.94464111 C-19.65234375 121.12109375 -19.65234375 121.12109375 -21.45806885 123.52947998 C-24.62314548 125.82526323 -26.84365092 125.60583647 -30.65234375 125.12109375 C-32.34590149 124.02812195 -32.34590149 124.02812195 -33.65234375 122.12109375 C-34.0131073 119.02693176 -34.0131073 119.02693176 -33.99291992 115.17114258 C-33.99357704 114.11709984 -33.99357704 114.11709984 -33.99424744 113.04176331 C-33.99215822 110.72026739 -33.96882194 108.39949466 -33.9453125 106.078125 C-33.93971699 104.46815892 -33.93544668 102.85818773 -33.93244934 101.24821472 C-33.92099693 97.01154468 -33.89152654 92.77518335 -33.8583374 88.53863525 C-33.82764494 84.21525245 -33.81394578 79.89181974 -33.79882812 75.56835938 C-33.76665705 67.08579585 -33.71545613 58.60348321 -33.65234375 50.12109375 C-35.09867188 50.19070312 -35.09867188 50.19070312 -36.57421875 50.26171875 C-37.8375 50.2978125 -39.10078125 50.33390625 -40.40234375 50.37109375 C-41.6553125 50.4175 -42.90828125 50.46390625 -44.19921875 50.51171875 C-47.65234375 50.12109375 -47.65234375 50.12109375 -50.11328125 48.26953125 C-51.65234375 46.12109375 -51.65234375 46.12109375 -51.52734375 43.49609375 C-50.65234375 41.12109375 -50.65234375 41.12109375 -48.65234375 39.12109375 C-46.07170246 38.9761139 -43.60290491 38.9343183 -41.02734375 38.99609375 C-40.3209375 39.00511719 -39.61453125 39.01414063 -38.88671875 39.0234375 C-37.14178277 39.04701772 -35.3970208 39.08288914 -33.65234375 39.12109375 C-33.70455078 37.87005859 -33.70455078 37.87005859 -33.7578125 36.59375 C-33.99555266 26.71055192 -32.96965576 19.01773376 -26.65234375 11.12109375 C-19.09720809 3.25033885 -10.63493762 0.48554207 0 0 Z " fill="#0F8D9E" transform="translate(777.65234375,73.87890625)"/>
<path d="M0 0 C15.18 0 30.36 0 46 0 C46 14.85 46 29.7 46 45 C30.82 45 15.64 45 0 45 C0 30.15 0 15.3 0 0 Z " fill="#FFFFFF" transform="translate(160,225)"/>
<path d="M0 0 C2.09785696 -0.00220569 4.19520326 -0.02045417 6.29296875 -0.03930664 C7.62630029 -0.04223755 8.95963432 -0.04422437 10.29296875 -0.04516602 C11.50114258 -0.0492749 12.70931641 -0.05338379 13.95410156 -0.05761719 C16.83984375 0.18530273 16.83984375 0.18530273 18.83984375 2.18530273 C19.08035278 4.62771606 19.08035278 4.62771606 19.06689453 7.73657227 C19.06674347 8.89762482 19.06659241 10.05867737 19.06643677 11.25491333 C19.0561142 12.51326996 19.04579163 13.77162659 19.03515625 15.06811523 C19.03232635 16.35265594 19.02949646 17.63719666 19.02658081 18.96066284 C19.01894184 22.3769304 18.99929127 25.7930281 18.97717285 29.20922852 C18.95672 32.69471904 18.94747079 36.18023781 18.9375 39.66577148 C18.91710646 46.50576529 18.87796145 53.34529255 18.83984375 60.18530273 C34.01984375 60.18530273 49.19984375 60.18530273 64.83984375 60.18530273 C64.74306649 53.52804616 64.64043508 46.87143576 64.52246094 40.21459961 C64.48411104 37.94870592 64.44926892 35.68275009 64.41796875 33.41674805 C64.37244848 30.16489407 64.31443299 26.91347013 64.25390625 23.66186523 C64.24235504 22.64412018 64.23080383 21.62637512 64.21890259 20.57778931 C64.1990329 19.63696503 64.17916321 18.69614075 64.15869141 17.72680664 C64.14536774 16.89629791 64.13204407 16.06578918 64.11831665 15.21011353 C64.01648833 12.95916659 64.01648833 12.95916659 61.83984375 11.18530273 C61.51313305 8.11422218 61.35846099 6.03480172 62.90234375 3.31030273 C65.98056286 1.5229497 68.36890443 1.75143532 71.83984375 2.18530273 C73.83984375 3.81030273 73.83984375 3.81030273 74.83984375 6.18530273 C74.61946747 9.85824069 74.47017829 11.5549682 71.83984375 14.18530273 C71.52293584 16.39353535 71.52293584 16.39353535 71.55273438 18.97045898 C71.53932007 19.96489014 71.52590576 20.95932129 71.51208496 21.98388672 C71.50680786 23.060979 71.50153076 24.13807129 71.49609375 25.24780273 C71.47415955 26.90114624 71.47415955 26.90114624 71.45178223 28.58789062 C71.4051482 32.12032447 71.37101659 35.65270055 71.33984375 39.18530273 C71.29884551 43.83134917 71.24522778 48.47698942 71.18359375 53.12280273 C71.17831665 54.19989502 71.17303955 55.2769873 71.16760254 56.38671875 C71.15418823 57.3811499 71.14077393 58.37558105 71.12695312 59.40014648 C71.11966187 60.27791748 71.11237061 61.15568848 71.1048584 62.06005859 C70.83984375 64.18530273 70.83984375 64.18530273 68.83984375 66.18530273 C66.56274414 66.43927002 66.56274414 66.43927002 63.6875 66.4440918 C62.61298584 66.45039612 61.53847168 66.45670044 60.43139648 66.4631958 C59.26680908 66.45914734 58.10222168 66.45509888 56.90234375 66.45092773 C55.71133057 66.45284119 54.52031738 66.45475464 53.29321289 66.45672607 C50.77131947 66.45808904 48.24941906 66.4543849 45.72753906 66.44604492 C41.85596026 66.43534727 37.98484553 66.44593679 34.11328125 66.45874023 C31.66796772 66.45741866 29.22265448 66.45485631 26.77734375 66.45092773 C25.03046265 66.45700043 25.03046265 66.45700043 23.24829102 66.4631958 C21.63651978 66.45373932 21.63651978 66.45373932 19.9921875 66.4440918 C18.56894165 66.44170502 18.56894165 66.44170502 17.11694336 66.43927002 C14.83984375 66.18530273 14.83984375 66.18530273 12.83984375 64.18530273 C12.59933472 61.7428894 12.59933472 61.7428894 12.61279297 58.6340332 C12.61294403 57.47298065 12.61309509 56.3119281 12.61325073 55.11569214 C12.6235733 53.85733551 12.63389587 52.59897888 12.64453125 51.30249023 C12.64736115 50.01794952 12.65019104 48.73340881 12.65310669 47.40994263 C12.66074566 43.99367507 12.68039623 40.57757737 12.70251465 37.16137695 C12.72296751 33.67588601 12.7321072 30.19036763 12.7421875 26.70483398 C12.763642 19.86492042 12.79778104 13.02511973 12.83984375 6.18530273 C11.4363266 6.20992584 11.4363266 6.20992584 10.00445557 6.23504639 C8.75420593 6.25698059 7.5039563 6.27891479 6.21582031 6.30151367 C4.91197388 6.32499878 3.60812744 6.34848389 2.26477051 6.37268066 C0.22017385 6.40752132 -1.82448784 6.43976587 -3.8692627 6.46179199 C-17.87406547 6.61474965 -30.73428041 9.6034953 -41.3828125 19.18530273 C-51.23991866 29.50302133 -54.51643851 41.80994167 -54.34765625 55.74780273 C-54.34701172 56.76293945 -54.34636719 57.77807617 -54.34570312 58.82397461 C-54.31695412 63.71450011 -54.18681196 68.38055403 -53.16015625 73.18530273 C-52.54140625 73.28842773 -51.92265625 73.39155273 -51.28515625 73.49780273 C-49.16015625 74.18530273 -49.16015625 74.18530273 -47.16015625 77.18530273 C-46.65280943 80.48305705 -46.84958558 81.74333679 -48.78515625 84.49780273 C-51.16015625 86.18530273 -51.16015625 86.18530273 -54.22265625 86.68530273 C-57.16015625 86.18530273 -57.16015625 86.18530273 -58.8359375 84.52905273 C-60.52321371 81.54272316 -60.42993168 79.59178341 -60.28515625 76.18530273 C-60.07681597 72.18272209 -60.07681597 72.18272209 -60.64477539 68.25463867 C-64.27387368 53.68323313 -60.50434282 35.31573069 -52.9140625 22.64624023 C-43.86446856 9.94859172 -31.49866754 3.59516822 -16.41015625 0.64819336 C-10.96301925 -0.12763084 -5.49123526 -0.00064878 0 0 Z " fill="#7B7B7B" transform="translate(141.16015625,113.814697265625)"/>
<path d="M0 0 C3.05561044 0.79762576 4.11573533 2.01967352 6.03515625 4.53125 C6.42987963 7.46277784 6.58249228 10.01832031 6.55273438 12.94897461 C6.55974365 13.79674469 6.56675293 14.64451477 6.57397461 15.51797485 C6.59158952 18.32351386 6.57991018 21.12804423 6.56640625 23.93359375 C6.56910241 25.89213758 6.57298587 27.8506801 6.57800293 29.80921936 C6.58390459 33.92087506 6.57532185 38.0321835 6.55664062 42.14379883 C6.53398609 47.38225608 6.54688374 52.61988743 6.57093048 57.85831356 C6.58548649 61.90873768 6.58073557 65.95897099 6.57041931 70.00940132 C6.56777193 71.93846296 6.57095083 73.86754256 6.58033752 75.79658318 C6.68382603 103.07140772 6.68382603 103.07140772 -2.9609375 112.9453125 C-8.96610596 117.69794095 -15.98585807 119.6766188 -23.52734375 119.71875 C-24.68363281 119.73292969 -25.83992188 119.74710937 -27.03125 119.76171875 C-29.96484375 119.53125 -29.96484375 119.53125 -31.96484375 117.53125 C-32.27734375 114.03125 -32.27734375 114.03125 -31.96484375 110.53125 C-28.81314908 108.43012022 -27.31738484 108.18004839 -23.65234375 107.71875 C-18.25048787 106.81129537 -15.68226091 105.53462232 -11.96484375 101.53125 C-9.20605942 97.62878385 -9.67982582 93.18512788 -9.69360352 88.60351562 C-9.6857634 87.25165413 -9.6857634 87.25165413 -9.67776489 85.8724823 C-9.66753071 83.91746257 -9.6617455 81.96241563 -9.6598835 80.00737 C-9.65622238 76.91416677 -9.63950355 73.82128487 -9.61912537 70.72814941 C-9.56368179 61.93454961 -9.53299386 53.14090279 -9.50854492 44.34716797 C-9.49268547 38.96730668 -9.46248559 33.58767435 -9.42378044 28.20793152 C-9.41211838 26.15702237 -9.40619999 24.10607231 -9.40609932 22.05513 C-9.40590763 19.18950428 -9.3876687 16.32451192 -9.36547852 13.45898438 C-9.37234428 12.18555428 -9.37234428 12.18555428 -9.37934875 10.88639832 C-9.33685371 7.44095047 -9.25822124 5.11085755 -7.68589783 2.0045166 C-5.3076341 -0.03133838 -3.04707003 0.04696832 0 0 Z " fill="#1690A1" transform="translate(370.96484375,111.46875)"/>
<path d="M0 0 C4.15849752 0.76380567 5.43901238 2.28583532 8.0625 5.5625 C8.54893089 8.26514861 8.72987975 10.33490833 8.67773438 13.02734375 C8.68328339 13.76131378 8.6888324 14.49528381 8.69454956 15.25149536 C8.70632332 17.66833588 8.68209659 20.08329173 8.65625 22.5 C8.65453819 24.18481358 8.6546053 25.86962983 8.65637207 27.55444336 C8.65472013 31.08180294 8.63604601 34.60852599 8.60449219 38.13574219 C8.56481467 42.65185729 8.56044766 47.16713906 8.56795502 51.68339539 C8.57102798 55.16133222 8.55889265 58.63908252 8.54182434 62.11697388 C8.53480468 63.78189931 8.53166855 65.44684588 8.53251648 67.11178589 C8.530714 69.44079626 8.50929518 71.76881747 8.48242188 74.09765625 C8.48535248 74.78248077 8.48828308 75.4673053 8.49130249 76.17288208 C8.41536397 80.44908985 7.66375008 83.15229432 5.0625 86.5625 C2.18779507 87.99985246 0.24355412 87.94422649 -2.9375 87.5625 C-5.89233232 84.76961314 -6.86318145 83.0798029 -7.44543457 79.02696228 C-7.4690443 77.65090475 -7.47088125 76.27436269 -7.45507812 74.89819336 C-7.4620874 74.14310989 -7.46909668 73.38802643 -7.47631836 72.61006165 C-7.49386853 70.12377736 -7.48228819 67.63863882 -7.46875 65.15234375 C-7.47144551 63.42029096 -7.47532842 61.68823964 -7.48034668 59.95619202 C-7.48623742 56.33059242 -7.47769159 52.70538762 -7.45898438 49.07983398 C-7.43617776 44.43349565 -7.449331 39.78808067 -7.47327423 35.14177608 C-7.48772927 31.56695092 -7.48312792 27.99234466 -7.47276306 24.41751289 C-7.47009583 22.70429945 -7.47336542 20.99106609 -7.48268127 19.2778759 C-7.49284429 16.88385231 -7.47735199 14.49132431 -7.45507812 12.09741211 C-7.46317505 11.39029083 -7.47127197 10.68316956 -7.47961426 9.95462036 C-7.42173741 6.59582521 -7.14383406 4.83434973 -5.08874512 2.12672424 C-2.9375 0.5625 -2.9375 0.5625 0 0 Z " fill="#1891A1" transform="translate(704.9375,111.4375)"/>
<path d="M0 0 C1.11785889 -0.00315216 2.23571777 -0.00630432 3.38745117 -0.009552 C5.21240112 -0.00651566 5.21240112 -0.00651566 7.07421875 -0.00341797 C8.31341064 -0.00437469 9.55260254 -0.00533142 10.8293457 -0.00631714 C13.45560156 -0.00699921 16.08176508 -0.00564085 18.70800781 -0.00097656 C22.08100589 0.00472073 25.4539244 0.00144151 28.82691956 -0.00454903 C32.03435552 -0.00902317 35.24178175 -0.00589429 38.44921875 -0.00341797 C39.66585205 -0.0054422 40.88248535 -0.00746643 42.13598633 -0.009552 C43.81277466 -0.00482376 43.81277466 -0.00482376 45.5234375 0 C46.51303467 0.00079559 47.50263184 0.00159119 48.5222168 0.00241089 C50.76171875 0.12939453 50.76171875 0.12939453 51.76171875 1.12939453 C51.86568893 2.80647877 51.90024784 4.48792245 51.90698242 6.16821289 C51.91336227 7.24280258 51.91974213 8.31739227 51.92631531 9.42454529 C51.92742813 10.59429398 51.92854095 11.76404266 51.9296875 12.96923828 C51.9346801 14.75788048 51.9346801 14.75788048 51.93977356 16.58265686 C51.94484791 19.11052056 51.94718173 21.63839098 51.94702148 24.16625977 C51.94920735 28.04666108 51.96735632 31.92677799 51.98632812 35.80712891 C51.98926198 38.25699772 51.99124683 40.70686789 51.9921875 43.15673828 C51.99937302 44.32446274 52.00655853 45.49218719 52.01396179 46.69529724 C52.01088516 47.77303909 52.00780853 48.85078094 52.00463867 49.96118164 C52.00606369 50.91302841 52.00748871 51.86487518 52.00895691 52.8455658 C51.76171875 55.12939453 51.76171875 55.12939453 49.76171875 57.12939453 C47.43319702 57.36990356 47.43319702 57.36990356 44.48583984 57.35644531 C43.38484955 57.35629425 42.28385925 57.35614319 41.14950562 57.35598755 C39.95677032 57.34566498 38.76403503 57.33534241 37.53515625 57.32470703 C36.31720367 57.32187714 35.0992511 57.31904724 33.84439087 57.31613159 C29.94173492 57.30490709 26.03930572 57.27979825 22.13671875 57.25439453 C19.49609706 57.24436767 16.85547178 57.23524131 14.21484375 57.22705078 C7.73039095 57.20496034 1.24607105 57.17146045 -5.23828125 57.12939453 C-6.50959469 54.58676766 -6.36529685 52.80733652 -6.36767578 49.96118164 C-6.37082794 48.88343979 -6.3739801 47.80569794 -6.37722778 46.69529724 C-6.37520355 45.52757278 -6.37317932 44.35984833 -6.37109375 43.15673828 C-6.37205048 41.96335342 -6.3730072 40.76996857 -6.37399292 39.54042053 C-6.37467435 37.01433255 -6.37282265 34.48824283 -6.36865234 31.9621582 C-6.36329892 28.07971292 -6.36860105 24.19738309 -6.375 20.31494141 C-6.3743393 17.86637344 -6.37305832 15.41780555 -6.37109375 12.96923828 C-6.37311798 11.79948959 -6.37514221 10.62974091 -6.37722778 9.42454529 C-6.37407562 8.3499556 -6.37092346 7.27536591 -6.36767578 6.16821289 C-6.36688019 5.21716171 -6.36608459 4.26611053 -6.36526489 3.28623962 C-6.1178808 -0.91563367 -3.63820543 0.00292496 0 0 Z M-0.23828125 6.12939453 C-0.23828125 20.97939453 -0.23828125 35.82939453 -0.23828125 51.12939453 C14.94171875 51.12939453 30.12171875 51.12939453 45.76171875 51.12939453 C45.76171875 36.27939453 45.76171875 21.42939453 45.76171875 6.12939453 C30.58171875 6.12939453 15.40171875 6.12939453 -0.23828125 6.12939453 Z " fill="#7A7A7A" transform="translate(160.23828125,218.87060546875)"/>
<path d="M0 0 C1.06669922 0.00322266 2.13339844 0.00644531 3.23242188 0.00976562 C4.88661133 0.02233398 4.88661133 0.02233398 6.57421875 0.03515625 C7.69634766 0.03966797 8.81847656 0.04417969 9.97460938 0.04882812 C12.73703385 0.06058312 15.49934873 0.07701548 18.26171875 0.09765625 C18.31619268 1.98665328 18.3547246 3.87611354 18.38671875 5.765625 C18.40992188 6.8177417 18.433125 7.8698584 18.45703125 8.95385742 C18.01872223 16.00898892 14.42474576 21.3438759 9.38671875 26.09765625 C3.73075173 30.58233159 -2.14474089 31.63860466 -9.2421875 31.4765625 C-14.82781579 30.62866587 -18.44464018 27.45597937 -22.23828125 23.47265625 C-24.39181508 18.62720513 -24.4951546 14.31609885 -23.73828125 9.09765625 C-21.75529041 4.95924058 -19.46502345 3.81902183 -15.30078125 2.34765625 C-10.16262177 0.81067637 -5.3745676 -0.028741 0 0 Z " fill="#FBFDFD" transform="translate(437.73828125,157.90234375)"/>
<path d="M0 0 C0.66 0.66 1.32 1.32 2 2 C3.91283119 2.30561237 3.91283119 2.30561237 6.13059998 2.26069641 C6.99567169 2.26778122 7.86074341 2.27486603 8.75202942 2.28216553 C9.7032518 2.27968811 10.65447418 2.27721069 11.63452148 2.2746582 C13.1346579 2.2823246 13.1346579 2.2823246 14.6651001 2.29014587 C17.98382487 2.30409016 21.3023431 2.30308146 24.62109375 2.30078125 C26.92033466 2.30466553 29.21957484 2.30899964 31.51881409 2.31376648 C36.34337691 2.32123912 41.16786657 2.32092986 45.99243164 2.31567383 C52.18461494 2.309878 58.37649924 2.3268081 64.56863308 2.3500185 C69.31860616 2.36472808 74.06850679 2.36563132 78.81849861 2.36250877 C81.1019252 2.36302339 83.3853557 2.36828725 85.6687603 2.37832069 C88.85806759 2.39061385 92.04678659 2.38393609 95.23608398 2.37231445 C96.18528214 2.37995819 97.13448029 2.38760193 98.11244202 2.39547729 C98.98033356 2.38846298 99.8482251 2.38144867 100.74241638 2.3742218 C101.87370799 2.37447341 101.87370799 2.37447341 103.02785397 2.37473011 C105.52413359 1.90040868 106.30940365 0.83414985 108 -1 C111.28653916 -1.58989164 112.57382999 -1.28037501 115.375 0.5625 C117 3 117 3 116.9375 6.625 C116 10 116 10 113 12 C106.43396226 11.43396226 106.43396226 11.43396226 105 10 C103.64706324 9.89262854 102.28864581 9.85321362 100.9315033 9.84178162 C100.05505661 9.8319928 99.17860992 9.82220398 98.27560425 9.81211853 C96.82228195 9.80348534 96.82228195 9.80348534 95.33959961 9.79467773 C93.81782356 9.77982834 93.81782356 9.77982834 92.26530457 9.76467896 C88.89434179 9.73295872 85.5233649 9.7082651 82.15234375 9.68359375 C79.82206342 9.6630333 77.4917869 9.64203708 75.16151428 9.62062073 C69.01466953 9.56530614 62.86779061 9.5159384 56.72088623 9.46777344 C50.45386701 9.41762677 44.18689769 9.36190512 37.91992188 9.30664062 C25.61332383 9.19894431 13.30668255 9.097525 1 9 C1 9.66 1 10.32 1 11 C-1.79870027 12.39935013 -3.90498792 12.25265405 -7 12 C-8.875 10.9375 -8.875 10.9375 -10 9 C-10.4375 5.5 -10.4375 5.5 -10 2 C-7.00303875 -1.6885677 -4.34072074 -1.22672543 0 0 Z " fill="#787878" transform="translate(129,86)"/>
<path d="M0 0 C2 2 2 2 2.25 5.5 C2 9 2 9 0 11 C-0.30288188 12.93274771 -0.30288188 12.93274771 -0.25396729 15.17529297 C-0.25960693 16.050224 -0.26524658 16.92515503 -0.27105713 17.82659912 C-0.26700867 18.78874329 -0.26296021 19.75088745 -0.25878906 20.7421875 C-0.2622937 21.75363831 -0.26579834 22.76508911 -0.26940918 23.80718994 C-0.27823893 27.16319567 -0.27237291 30.51899199 -0.265625 33.875 C-0.26697129 36.1990564 -0.26891152 38.52311253 -0.27142334 40.84716797 C-0.27437629 45.72300899 -0.27007143 50.59877684 -0.26074219 55.47460938 C-0.24934761 61.7363365 -0.25590616 67.9978922 -0.26788712 74.25961304 C-0.27510107 79.0601532 -0.27281992 83.86065247 -0.26763153 88.66119385 C-0.26629375 90.97056091 -0.26794721 93.27993165 -0.27259064 95.58929443 C-0.27764822 98.81223439 -0.26995635 102.03489355 -0.25878906 105.2578125 C-0.26283752 106.21995667 -0.26688599 107.18210083 -0.27105713 108.17340088 C-0.26259766 109.48579742 -0.26259766 109.48579742 -0.25396729 110.82470703 C-0.25283621 111.96844284 -0.25283621 111.96844284 -0.25168228 113.13528442 C-0.15869736 115.245417 -0.15869736 115.245417 2 117 C2.25 120.5 2.25 120.5 2 124 C0 126 0 126 -1.875 126.265625 C-2.57625 126.26046875 -3.2775 126.2553125 -4 126.25 C-4.70125 126.25515625 -5.4025 126.2603125 -6.125 126.265625 C-8 126 -8 126 -10 124 C-10.25 120.5 -10.25 120.5 -10 117 C-9.01 116.01 -9.01 116.01 -8 115 C-7.69711812 113.06725229 -7.69711812 113.06725229 -7.74603271 110.82470703 C-7.74039307 109.949776 -7.73475342 109.07484497 -7.72894287 108.17340088 C-7.73299133 107.21125671 -7.73703979 106.24911255 -7.74121094 105.2578125 C-7.7377063 104.24636169 -7.73420166 103.23491089 -7.73059082 102.19281006 C-7.72176107 98.83680433 -7.72762709 95.48100801 -7.734375 92.125 C-7.73302871 89.8009436 -7.73108848 87.47688747 -7.72857666 85.15283203 C-7.72562371 80.27699101 -7.72992857 75.40122316 -7.73925781 70.52539062 C-7.75065239 64.2636635 -7.74409384 58.0021078 -7.73211288 51.74038696 C-7.72489893 46.9398468 -7.72718008 42.13934753 -7.73236847 37.33880615 C-7.73370625 35.02943909 -7.73205279 32.72006835 -7.72740936 30.41070557 C-7.72235178 27.18776561 -7.73004365 23.96510645 -7.74121094 20.7421875 C-7.73716248 19.78004333 -7.73311401 18.81789917 -7.72894287 17.82659912 C-7.73458252 16.95166809 -7.74022217 16.07673706 -7.74603271 15.17529297 C-7.74678677 14.41280243 -7.74754082 13.65031189 -7.74831772 12.86471558 C-7.84130264 10.754583 -7.84130264 10.754583 -10 9 C-10.375 5.5625 -10.375 5.5625 -10 2 C-7.00303875 -1.6885677 -4.34072074 -1.22672543 0 0 Z " fill="#787878" transform="translate(138,181)"/>
<path d="M0 0 C2.1640625 0.47265625 2.1640625 0.47265625 5.2890625 2.41015625 C7.58484932 6.15994139 7.57596602 8.20584078 6.79296875 12.4453125 C6.1640625 14.47265625 6.1640625 14.47265625 4.6640625 16.53515625 C0.78179576 17.99100628 -2.75562157 18.23499286 -6.8359375 17.47265625 C-9.8984375 15.41015625 -9.8984375 15.41015625 -11.8359375 12.47265625 C-12.61748055 8.09601515 -12.35190703 6.25493263 -9.8984375 2.53515625 C-6.32441554 0.12816187 -4.23275483 -0.27604923 0 0 Z " fill="#1590A0" transform="translate(371.8359375,74.52734375)"/>
<path d="M0 0 C2.08984375 0.4140625 2.08984375 0.4140625 4.58984375 1.9765625 C6.59117787 5.22873044 7.02295471 7.60138749 7.08984375 11.4140625 C5.74421976 14.36161982 5.00429831 15.95683522 2.08984375 17.4140625 C-2.68250816 18.07037809 -5.90967472 18.08785618 -9.97265625 15.3515625 C-12.42612578 11.63178612 -12.6916993 9.7907036 -11.91015625 5.4140625 C-8.67252343 0.50539338 -5.59633919 -0.35384507 0 0 Z " fill="#1490A0" transform="translate(707.91015625,74.5859375)"/>
<path d="M0 0 C3.65907504 0.68607657 5.35167676 1.98984314 8 4.5625 C9.41000664 7.38251327 9.24548451 9.43257255 9 12.5625 C6.73529412 17.19485294 6.73529412 17.19485294 4 18.5625 C-3.13669065 19.25314748 -3.13669065 19.25314748 -6.5 16.5625 C-8.41597124 12.73055752 -8.97383359 9.7626866 -8 5.5625 C-5.55871269 2.11597674 -4.17033126 0.78193711 0 0 Z " fill="#2C9BAA" transform="translate(465,249.4375)"/>
<path d="M0 0 C4.17862962 0.87054784 5.56887157 2.12131491 8 5.625 C8.8840096 9.94511646 8.74064073 13.35973876 6.5 17.1875 C2.9497563 19.22889013 -0.00285328 19.40313307 -4 18.625 C-6.5 17.1875 -6.5 17.1875 -8 14.625 C-8.61374117 11.49199746 -8.64056787 8.75542734 -8 5.625 C-5.56887157 2.12131491 -4.17862962 0.87054784 0 0 Z " fill="#2497A6" transform="translate(543,249.375)"/>
<path d="M0 0 C4.17862962 0.87054784 5.56887157 2.12131491 8 5.625 C8.8840096 9.94511646 8.74064073 13.35973876 6.5 17.1875 C2.9497563 19.22889013 -0.00285328 19.40313307 -4 18.625 C-6.5 17.1875 -6.5 17.1875 -8 14.625 C-8.61374117 11.49199746 -8.64056787 8.75542734 -8 5.625 C-5.56887157 2.12131491 -4.17862962 0.87054784 0 0 Z " fill="#2497A6" transform="translate(395,249.375)"/>
<path d="M0 0 C9.83711825 -0.7752545 9.83711825 -0.7752545 14.1875 2.125 C16.31074789 5.49291044 16.58217339 7.0911215 16 11 C15.13235153 13.6029454 14.55638981 14.65788723 12.21484375 16.09765625 C9.74195626 17.10512893 7.9709155 17.23583483 5.3125 17.1875 C4.52488281 17.18105469 3.73726563 17.17460937 2.92578125 17.16796875 C1 17 1 17 0 16 C-0.07319621 13.30345146 -0.09242537 10.63308542 -0.0625 7.9375 C-0.05798828 7.17888672 -0.05347656 6.42027344 -0.04882812 5.63867188 C-0.0370068 3.75908129 -0.01907078 1.87953101 0 0 Z " fill="#1D94A4" transform="translate(304,251)"/>
<path d="M0 0 C0.66 0 1.32 0 2 0 C2.83848804 1.45537568 3.67063934 2.91440373 4.5 4.375 C5.19609375 5.59316406 5.19609375 5.59316406 5.90625 6.8359375 C7 9 7 9 7 11 C7.66 11 8.32 11 9 11 C9.268125 10.29875 9.53625 9.5975 9.8125 8.875 C11.0681449 5.8350176 12.50235123 2.9272226 14 0 C14.99 0.33 15.98 0.66 17 1 C17 6.61 17 12.22 17 18 C16.01 18 15.02 18 14 18 C13.67 15.03 13.34 12.06 13 9 C11.02 11.97 11.02 11.97 9 15 C5.21503862 13.48601545 4.9927802 12.9855604 3 9 C2.67 11.97 2.34 14.94 2 18 C1.01 18 0.02 18 -1 18 C-1.02684312 15.18743719 -1.04676188 12.37512759 -1.0625 9.5625 C-1.07087891 8.76005859 -1.07925781 7.95761719 -1.08789062 7.13085938 C-1.0965143 5.08704779 -1.0522815 3.04316098 -1 1 C-0.67 0.67 -0.34 0.34 0 0 Z " fill="#2095A5" transform="translate(641,250)"/>
<path d="M0 0 C0.66 0 1.32 0 2 0 C2.83848804 1.45537568 3.67063934 2.91440373 4.5 4.375 C5.19609375 5.59316406 5.19609375 5.59316406 5.90625 6.8359375 C7 9 7 9 7 11 C7.66 11 8.32 11 9 11 C9.268125 10.29875 9.53625 9.5975 9.8125 8.875 C11.0681449 5.8350176 12.50235123 2.9272226 14 0 C14.99 0.33 15.98 0.66 17 1 C17 6.61 17 12.22 17 18 C16.01 18 15.02 18 14 18 C13.67 15.03 13.34 12.06 13 9 C11.02 11.97 11.02 11.97 9 15 C5.21503862 13.48601545 4.9927802 12.9855604 3 9 C2.67 11.97 2.34 14.94 2 18 C1.01 18 0.02 18 -1 18 C-1.02684312 15.18743719 -1.04676188 12.37512759 -1.0625 9.5625 C-1.07087891 8.76005859 -1.07925781 7.95761719 -1.08789062 7.13085938 C-1.0965143 5.08704779 -1.0522815 3.04316098 -1 1 C-0.67 0.67 -0.34 0.34 0 0 Z " fill="#2095A5" transform="translate(587,250)"/>
<path d="M0 0 C1.38938077 1.96147874 2.7260411 3.96166576 4 6 C4.598125 5.195625 5.19625 4.39125 5.8125 3.5625 C8 1 8 1 11 0 C10.61204882 2.7932485 10.36207201 4.57758265 8.5 6.75 C6.19498637 10.20752044 6.25253135 13.92466647 6 18 C5.01 18 4.02 18 3 18 C2.89042969 17.32453125 2.78085937 16.6490625 2.66796875 15.953125 C2.50941406 15.06109375 2.35085938 14.1690625 2.1875 13.25 C2.03667969 12.36828125 1.88585937 11.4865625 1.73046875 10.578125 C0.89458482 7.62794642 0.25330583 6.09741674 -2 4 C-4.31 3.67 -6.62 3.34 -9 3 C-9 7.95 -9 12.9 -9 18 C-9.99 18 -10.98 18 -12 18 C-12 13.05 -12 8.1 -12 3 C-13.98 3 -15.96 3 -18 3 C-18 2.34 -18 1.68 -18 1 C-15.37504621 0.83257698 -12.75004205 0.6660283 -10.125 0.5 C-9.00544922 0.42845703 -9.00544922 0.42845703 -7.86328125 0.35546875 C-2.2265625 0 -2.2265625 0 0 0 Z " fill="#1B93A3" transform="translate(771,250)"/>
<path d="M0 0 C5.40063434 2.70031717 7.41286678 6.17116682 11 11 C11.33 7.37 11.66 3.74 12 0 C12.99 0.33 13.98 0.66 15 1 C15 6.61 15 12.22 15 18 C10.4467788 16.8616947 9.91490488 16.07612012 7.25 12.4375 C6.32960938 11.19806641 6.32960938 11.19806641 5.390625 9.93359375 C4.93171875 9.29550781 4.4728125 8.65742188 4 8 C3.67 11.3 3.34 14.6 3 18 C2.01 18 1.02 18 0 18 C0 12.06 0 6.12 0 0 Z " fill="#2396A6" transform="translate(439,250)"/>
<path d="M0 0 C3.79620155 1.26540052 4.48678188 2.78218431 6.6875 6.0625 C7.31011719 6.98160156 7.93273437 7.90070313 8.57421875 8.84765625 C9.04472656 9.55792969 9.51523437 10.26820313 10 11 C10.33 7.7 10.66 4.4 11 1 C11.99 0.67 12.98 0.34 14 0 C14 5.94 14 11.88 14 18 C13.01 18 12.02 18 11 18 C8.95703125 15.59375 8.95703125 15.59375 6.8125 12.5 C6.09707031 11.4790625 5.38164062 10.458125 4.64453125 9.40625 C4.10183594 8.6121875 3.55914062 7.818125 3 7 C2.67 10.63 2.34 14.26 2 18 C1.01 18 0.02 18 -1 18 C-1.02684312 15.18743719 -1.04676188 12.37512759 -1.0625 9.5625 C-1.07087891 8.76005859 -1.07925781 7.95761719 -1.08789062 7.13085938 C-1.0965143 5.08704779 -1.0522815 3.04316098 -1 1 C-0.67 0.67 -0.34 0.34 0 0 Z " fill="#2397A6" transform="translate(351,250)"/>
<path d="M0 0 C0.66 0 1.32 0 2 0 C3.44074715 1.782129 4.80510649 3.62660276 6.125 5.5 C7.21167969 7.03140625 7.21167969 7.03140625 8.3203125 8.59375 C8.87460937 9.3878125 9.42890625 10.181875 10 11 C10.33 7.37 10.66 3.74 11 0 C11.99 0.33 12.98 0.66 14 1 C14 6.61 14 12.22 14 18 C9.26248525 16.81562131 8.84258011 15.87622747 6.25 11.9375 C5.32960938 10.55884766 5.32960938 10.55884766 4.390625 9.15234375 C3.93171875 8.44207031 3.4728125 7.73179687 3 7 C2.67 10.63 2.34 14.26 2 18 C1.01 18 0.02 18 -1 18 C-1.02684312 15.18743719 -1.04676188 12.37512759 -1.0625 9.5625 C-1.07087891 8.76005859 -1.07925781 7.95761719 -1.08789062 7.13085938 C-1.0965143 5.08704779 -1.0522815 3.04316098 -1 1 C-0.67 0.67 -0.34 0.34 0 0 Z " fill="#1C93A3" transform="translate(421,250)"/>
<path d="M0 0 C3 1 3 1 4.60546875 4.0546875 C5.14407431 5.32340281 5.67099484 6.59712797 6.1875 7.875 C6.46013672 8.51308594 6.73277344 9.15117187 7.01367188 9.80859375 C8.2167376 12.69715757 9 14.8415827 9 18 C8.01 17.67 7.02 17.34 6 17 C5.67 16.34 5.34 15.68 5 15 C2.87423218 14.53348793 2.87423218 14.53348793 0.4375 14.375 C-0.38878906 14.30023438 -1.21507812 14.22546875 -2.06640625 14.1484375 C-2.70449219 14.09945313 -3.34257812 14.05046875 -4 14 C-4.33 15.32 -4.66 16.64 -5 18 C-5.99 18 -6.98 18 -8 18 C-3.6 3.6 -3.6 3.6 0 0 Z " fill="#1C94A3" transform="translate(501,250)"/>
<path d="M0 0 C3.34543994 1.04726815 4.01339514 2.02506981 5.703125 5.1875 C6.23248618 6.45267321 6.74773178 7.72382872 7.25 9 C7.518125 9.64195312 7.78625 10.28390625 8.0625 10.9453125 C10 15.67044005 10 15.67044005 10 18 C9.01 18 8.02 18 7 18 C6.67 16.68 6.34 15.36 6 14 C4.54054712 14.08708669 3.08234132 14.19526907 1.625 14.3125 C0.40683594 14.39951172 0.40683594 14.39951172 -0.8359375 14.48828125 C-3.37921338 14.82990528 -3.37921338 14.82990528 -5 18 C-5.66 18 -6.32 18 -7 18 C-6.44380331 13.3110507 -5.11817327 9.80075733 -2.9375 5.625 C-2.38964844 4.56539062 -1.84179688 3.50578125 -1.27734375 2.4140625 C-0.85582031 1.61742187 -0.43429687 0.82078125 0 0 Z " fill="#2B9BA9" transform="translate(338,250)"/>
<path d="M0 0 C3 1 3 1 4.60546875 3.80078125 C5.12753906 4.95964844 5.64960937 6.11851562 6.1875 7.3125 C6.71730469 8.46363281 7.24710938 9.61476563 7.79296875 10.80078125 C9 14 9 14 9 18 C8.01 17.67 7.02 17.34 6 17 C5.67 16.34 5.34 15.68 5 15 C2.87423218 14.53348793 2.87423218 14.53348793 0.4375 14.375 C-0.38878906 14.30023438 -1.21507812 14.22546875 -2.06640625 14.1484375 C-2.70449219 14.09945313 -3.34257813 14.05046875 -4 14 C-4.33 15.32 -4.66 16.64 -5 18 C-5.66 18 -6.32 18 -7 18 C-6.44380331 13.3110507 -5.11817327 9.80075733 -2.9375 5.625 C-2.38964844 4.56539062 -1.84179688 3.50578125 -1.27734375 2.4140625 C-0.85582031 1.61742187 -0.43429687 0.82078125 0 0 Z " fill="#299AA9" transform="translate(668,250)"/>
<path d="M0 0 C3.86790003 1.93395001 4.87634236 2.7803006 7.25 6.125 C8.03117188 7.21167969 8.03117188 7.21167969 8.828125 8.3203125 C9.40820312 9.15175781 9.40820312 9.15175781 10 10 C10.33 7.03 10.66 4.06 11 1 C11.99 0.67 12.98 0.34 14 0 C14 5.94 14 11.88 14 18 C10.13209997 16.06604999 9.12365764 15.2196994 6.75 11.875 C5.38875 9.956875 5.38875 9.956875 4 8 C3.67 11.3 3.34 14.6 3 18 C2.01 18 1.02 18 0 18 C0 12.06 0 6.12 0 0 Z " fill="#2598A7" transform="translate(615,250)"/>
<path d="M0 0 C3.86790003 1.93395001 4.87634236 2.7803006 7.25 6.125 C8.03117188 7.21167969 8.03117188 7.21167969 8.828125 8.3203125 C9.40820312 9.15175781 9.40820312 9.15175781 10 10 C10.33 7.03 10.66 4.06 11 1 C11.99 0.67 12.98 0.34 14 0 C14 5.94 14 11.88 14 18 C10.13209997 16.06604999 9.12365764 15.2196994 6.75 11.875 C5.38875 9.956875 5.38875 9.956875 4 8 C3.67 11.3 3.34 14.6 3 18 C2.01 18 1.02 18 0 18 C0 12.06 0 6.12 0 0 Z " fill="#2598A7" transform="translate(555,250)"/>
<path d="M0 0 C0.99 0.66 1.98 1.32 3 2 C3 2.66 3 3.32 3 4 C-0.3 4 -3.6 4 -7 4 C-7.020625 5.464375 -7.04125 6.92875 -7.0625 8.4375 C-7.07410156 9.26121094 -7.08570313 10.08492188 -7.09765625 10.93359375 C-7.23267348 12.99163938 -7.23267348 12.99163938 -6 14 C-3.67182036 14.36760731 -1.3381615 14.70241581 1 15 C1 13.68 1 12.36 1 11 C-0.32 11 -1.64 11 -3 11 C-3 10.34 -3 9.68 -3 9 C-0.69 9 1.62 9 4 9 C4 11.64 4 14.28 4 17 C0.55258453 18.72370774 -3.23035339 18.50306672 -7 18 C-9.50160818 16.12379387 -10.61945652 14.76108697 -12 12 C-12.43023798 8.12785818 -12.31669086 6.47503629 -10.125 3.1875 C-6.79669717 -0.23869409 -4.69815964 -0.28764243 0 0 Z " fill="#2A9AA9" transform="translate(380,250)"/>
<path d="M0 0 C0.99 0.66 1.98 1.32 3 2 C3 2.66 3 3.32 3 4 C0.36 4 -2.28 4 -5 4 C-5 4.99 -5 5.98 -5 7 C-3.2984375 7.4640625 -3.2984375 7.4640625 -1.5625 7.9375 C2 9 2 9 3 10 C3.1875 12.9375 3.1875 12.9375 3 16 C1 18 1 18 -1.09375 18.23046875 C-1.8878125 18.21628906 -2.681875 18.20210938 -3.5 18.1875 C-4.2940625 18.18105469 -5.088125 18.17460937 -5.90625 18.16796875 C-8 18 -8 18 -10 17 C-10 16.01 -10 15.02 -10 14 C-6.7 14.33 -3.4 14.66 0 15 C-0.33 14.01 -0.66 13.02 -1 12 C-3.31847874 11.2833793 -5.65319703 10.61757973 -8 10 C-8.66 9.34 -9.32 8.68 -10 8 C-9.8125 5 -9.8125 5 -9 2 C-5.53001271 -0.31332486 -4.07490752 -0.33957563 0 0 Z " fill="#2A9AA9" transform="translate(748,250)"/>
<path d="M0 0 C0.99 0.66 1.98 1.32 3 2 C3 2.66 3 3.32 3 4 C0.36 4 -2.28 4 -5 4 C-5 4.99 -5 5.98 -5 7 C-3.88625 7.28875 -2.7725 7.5775 -1.625 7.875 C2 9 2 9 4 11 C3.67028521 14.29714793 3.3773161 15.6226839 1 18 C-1.09375 18.30078125 -1.09375 18.30078125 -3.5 18.3125 C-4.2940625 18.32925781 -5.088125 18.34601563 -5.90625 18.36328125 C-6.5971875 18.24339844 -7.288125 18.12351562 -8 18 C-8.66 17.01 -9.32 16.02 -10 15 C-6.7169902 13.3584951 -3.57454967 14.48111376 0 15 C-0.33 14.01 -0.66 13.02 -1 12 C-3.92914165 10.82917122 -3.92914165 10.82917122 -7 10 C-7.66 9.67 -8.32 9.34 -9 9 C-9.36 3.6 -9.36 3.6 -7.875 1.125 C-5.14747535 -0.51151479 -3.12026907 -0.32502803 0 0 Z " fill="#2E9CAB" transform="translate(710,250)"/>
<path d="M0 0 C1.37478516 0.01740234 1.37478516 0.01740234 2.77734375 0.03515625 C3.69644531 0.04417969 4.61554687 0.05320313 5.5625 0.0625 C6.27277344 0.07410156 6.98304688 0.08570313 7.71484375 0.09765625 C8.04484375 1.08765625 8.37484375 2.07765625 8.71484375 3.09765625 C5.74484375 3.09765625 2.77484375 3.09765625 -0.28515625 3.09765625 C-0.28515625 4.74765625 -0.28515625 6.39765625 -0.28515625 8.09765625 C2.35484375 8.09765625 4.99484375 8.09765625 7.71484375 8.09765625 C7.71484375 8.75765625 7.71484375 9.41765625 7.71484375 10.09765625 C5.07484375 10.09765625 2.43484375 10.09765625 -0.28515625 10.09765625 C-0.28515625 11.74765625 -0.28515625 13.39765625 -0.28515625 15.09765625 C2.35484375 15.09765625 4.99484375 15.09765625 7.71484375 15.09765625 C8.04484375 16.08765625 8.37484375 17.07765625 8.71484375 18.09765625 C4.75484375 18.09765625 0.79484375 18.09765625 -3.28515625 18.09765625 C-3.31199937 15.28509344 -3.33191813 12.47278384 -3.34765625 9.66015625 C-3.35603516 8.85771484 -3.36441406 8.05527344 -3.37304688 7.22851562 C-3.38167055 5.18470404 -3.33743775 3.14081723 -3.28515625 1.09765625 C-2.28515625 0.09765625 -2.28515625 0.09765625 0 0 Z " fill="#2296A6" transform="translate(802.28515625,249.90234375)"/>
<path d="M0 0 C3 1 3 1 4.16796875 2.9609375 C4.50441406 3.75757813 4.84085937 4.55421875 5.1875 5.375 C5.70376953 6.56222656 5.70376953 6.56222656 6.23046875 7.7734375 C7 10 7 10 7 13 C7.66 13 8.32 13 9 13 C9.0825 12.34 9.165 11.68 9.25 11 C10.24759791 7.00960837 12.07166683 3.61450357 14 0 C14.66 0 15.32 0 16 0 C15.44380331 4.6889493 14.11817327 8.19924267 11.9375 12.375 C11.38964844 13.43460937 10.84179688 14.49421875 10.27734375 15.5859375 C9.85582031 16.38257813 9.43429687 17.17921875 9 18 C8.01 18 7.02 18 6 18 C4.80036357 15.56781941 3.61515562 13.13029422 2.4375 10.6875 C2.09525391 9.99720703 1.75300781 9.30691406 1.40039062 8.59570312 C-1.11328125 3.33984375 -1.11328125 3.33984375 0 0 Z " fill="#2397A6" transform="translate(476,250)"/>
<path d="M0 0 C1.89488952 1.89488952 1.18019112 4.57139146 1.23046875 7.08984375 C1 9 1 9 -1 11 C-4 11.3125 -4 11.3125 -7 11 C-9.31282587 7.53076119 -9.42478586 6.07794425 -9 2 C-6.69566258 -1.96858112 -4.04869963 -1.05618251 0 0 Z " fill="#F4F9FA" transform="translate(469,254)"/>
<path d="M0 0 C1.423125 0.4021875 1.423125 0.4021875 2.875 0.8125 C4.26050197 3.58350394 4.0627467 5.7459706 3.875 8.8125 C2.885 10.2975 2.885 10.2975 1.875 11.8125 C-1.125 12.1875 -1.125 12.1875 -4.125 11.8125 C-6.43782587 8.34326119 -6.54978586 6.89044425 -6.125 2.8125 C-4.35767767 -0.23122179 -3.53906425 -0.21234385 0 0 Z " fill="#F7FBFB" transform="translate(544.125,253.1875)"/>
<path d="M0 0 C1.423125 0.4021875 1.423125 0.4021875 2.875 0.8125 C4.26050197 3.58350394 4.0627467 5.7459706 3.875 8.8125 C2.885 10.2975 2.885 10.2975 1.875 11.8125 C-1.125 12.1875 -1.125 12.1875 -4.125 11.8125 C-6.43782587 8.34326119 -6.54978586 6.89044425 -6.125 2.8125 C-4.35767767 -0.23122179 -3.53906425 -0.21234385 0 0 Z " fill="#F7FBFB" transform="translate(396.125,253.1875)"/>
<path d="M0 0 C6 0 6 0 9 2 C9.36328125 3.875 9.36328125 3.875 9.3125 6 C9.30863281 6.70125 9.30476563 7.4025 9.30078125 8.125 C9 10 9 10 7 12 C3.375 12.125 3.375 12.125 0 12 C0 8.04 0 4.08 0 0 Z " fill="#EFF7F8" transform="translate(307,253)"/>
<path d="M0 0 C0.99 0 1.98 0 3 0 C3 4.62 3 9.24 3 14 C5.64 14 8.28 14 11 14 C11.33 14.99 11.66 15.98 12 17 C10.18757948 17.02687279 8.37504767 17.04633715 6.5625 17.0625 C5.55316406 17.07410156 4.54382813 17.08570313 3.50390625 17.09765625 C1 17 1 17 0 16 C-0.07319621 13.30345146 -0.09242537 10.63308542 -0.0625 7.9375 C-0.05798828 7.17888672 -0.05347656 6.42027344 -0.04882812 5.63867188 C-0.0370068 3.75908129 -0.01907078 1.87953101 0 0 Z " fill="#1C93A3" transform="translate(785,251)"/>
<path d="M0 0 C0.99 0 1.98 0 3 0 C3 4.62 3 9.24 3 14 C5.64 14 8.28 14 11 14 C11.33 14.99 11.66 15.98 12 17 C10.18757948 17.02687279 8.37504767 17.04633715 6.5625 17.0625 C5.55316406 17.07410156 4.54382813 17.08570313 3.50390625 17.09765625 C1 17 1 17 0 16 C-0.07319621 13.30345146 -0.09242537 10.63308542 -0.0625 7.9375 C-0.05798828 7.17888672 -0.05347656 6.42027344 -0.04882812 5.63867188 C-0.0370068 3.75908129 -0.01907078 1.87953101 0 0 Z " fill="#1C93A3" transform="translate(680,251)"/>
<path d="M0 0 C4.95 0 9.9 0 15 0 C15 0.66 15 1.32 15 2 C13.02 2 11.04 2 9 2 C9 6.95 9 11.9 9 17 C8.01 17 7.02 17 6 17 C6 12.05 6 7.1 6 2 C4.02 2 2.04 2 0 2 C0 1.34 0 0.68 0 0 Z " fill="#0D8C9D" transform="translate(715,251)"/>
<path d="M0 0 C4.95 0 9.9 0 15 0 C15 0.66 15 1.32 15 2 C13.02 2 11.04 2 9 2 C9 6.95 9 11.9 9 17 C8.01 17 7.02 17 6 17 C6 12.05 6 7.1 6 2 C4.02 2 2.04 2 0 2 C0 1.34 0 0.68 0 0 Z " fill="#138F9F" transform="translate(511,251)"/>
<path d="M0 0 C0.99 0.33 1.98 0.66 3 1 C3 6.61 3 12.22 3 18 C1.68 18 0.36 18 -1 18 C-1.02684312 15.18743719 -1.04676188 12.37512759 -1.0625 9.5625 C-1.07087891 8.76005859 -1.07925781 7.95761719 -1.08789062 7.13085938 C-1.0965143 5.08704779 -1.0522815 3.04316098 -1 1 C-0.67 0.67 -0.34 0.34 0 0 Z " fill="#3FA4B1" transform="translate(529,250)"/>
<path d="M0 0 C6.35368578 -0.47952345 6.35368578 -0.47952345 8.9375 1.4375 C10.53562484 5.2918011 10.70077521 8.89330656 10 13 C8.125 15.5625 8.125 15.5625 6 17 C5.34 17 4.68 17 4 17 C4.33 16.175 4.66 15.35 5 14.5 C6.16782809 10.4126017 6.1458885 7.23076656 6 3 C3.69 3 1.38 3 -1 3 C-0.67 2.01 -0.34 1.02 0 0 Z " fill="#1A92A2" transform="translate(541,251)"/>
<path d="M0 0 C6.35368578 -0.47952345 6.35368578 -0.47952345 8.9375 1.4375 C10.53562484 5.2918011 10.70077521 8.89330656 10 13 C8.125 15.5625 8.125 15.5625 6 17 C5.34 17 4.68 17 4 17 C4.33 16.175 4.66 15.35 5 14.5 C6.16782809 10.4126017 6.1458885 7.23076656 6 3 C3.69 3 1.38 3 -1 3 C-0.67 2.01 -0.34 1.02 0 0 Z " fill="#1A92A2" transform="translate(393,251)"/>
<path d="M0 0 C0.66 0.33 1.32 0.66 2 1 C1.67 1.53625 1.34 2.0725 1 2.625 C-0.26498755 5.62934544 -0.34386442 7.76767442 0 11 C1.85342775 13.55949546 2.93756393 13.97918798 6 15 C6 15.66 6 16.32 6 17 C3.25 17.3125 3.25 17.3125 0 17 C-2.50806657 14.88794394 -3.75114713 13.28235407 -4.3828125 10.02734375 C-4.58910057 6.34853978 -4.31488019 4.39360024 -2 1.5 C-1.34 1.005 -0.68 0.51 0 0 Z " fill="#1B93A3" transform="translate(461,251)"/>
<path d="M0 0 C0.99 0.33 1.98 0.66 3 1 C4.1875 4.0625 4.1875 4.0625 5 7 C4.34 7 3.68 7 3 7 C3.33 8.32 3.66 9.64 4 11 C2.02 11 0.04 11 -2 11 C-3.25 9.4375 -3.25 9.4375 -4 7 C-2.93237266 4.42998985 -1.53455057 2.3469597 0 0 Z " fill="#2A9AA9" transform="translate(668,250)"/>
<path d="M0 0 C0.66 0 1.32 0 2 0 C2.05382106 2.62527189 2.09358313 5.24944713 2.125 7.875 C2.14175781 8.62136719 2.15851563 9.36773437 2.17578125 10.13671875 C2.1933959 12.09194461 2.10320189 14.04742021 2 16 C0 18 0 18 -2.625 18.125 C-3.40875 18.08375 -4.1925 18.0425 -5 18 C-4.505 16.515 -4.505 16.515 -4 15 C-3.01 15 -2.02 15 -1 15 C-1.01160156 14.00097656 -1.02320313 13.00195312 -1.03515625 11.97265625 C-1.04869141 10.03712891 -1.04869141 10.03712891 -1.0625 8.0625 C-1.07410156 6.77472656 -1.08570313 5.48695313 -1.09765625 4.16015625 C-1 1 -1 1 0 0 Z " fill="#1791A1" transform="translate(326,250)"/>
<path d="M0 0 C0.99 0.66 1.98 1.32 3 2 C3 2.66 3 3.32 3 4 C0.36 4 -2.28 4 -5 4 C-5 4.99 -5 5.98 -5 7 C-4.01 7.33 -3.02 7.66 -2 8 C-2 8.66 -2 9.32 -2 10 C-4.31 9.67 -6.62 9.34 -9 9 C-9.36 3.6 -9.36 3.6 -7.875 1.125 C-5.14747535 -0.51151479 -3.12026907 -0.32502803 0 0 Z " fill="#1590A0" transform="translate(710,250)"/>
<path d="M0 0 C0.66 0 1.32 0 2 0 C2 5.94 2 11.88 2 18 C1.01 18 0.02 18 -1 18 C-1.02684312 15.18743719 -1.04676188 12.37512759 -1.0625 9.5625 C-1.07087891 8.76005859 -1.07925781 7.95761719 -1.08789062 7.13085938 C-1.0965143 5.08704779 -1.0522815 3.04316098 -1 1 C-0.67 0.67 -0.34 0.34 0 0 Z " fill="#1C94A3" transform="translate(634,250)"/>
<path d="M0 0 C0.99 0.33 1.98 0.66 3 1 C3 6.61 3 12.22 3 18 C2.01 18 1.02 18 0 18 C0 12.06 0 6.12 0 0 Z " fill="#1E94A4" transform="translate(608,250)"/>
<path d="M0 0 C0.66 0 1.32 0 2 0 C2 5.94 2 11.88 2 18 C1.01 18 0.02 18 -1 18 C-1.02684312 15.18743719 -1.04676188 12.37512759 -1.0625 9.5625 C-1.07087891 8.76005859 -1.07925781 7.95761719 -1.08789062 7.13085938 C-1.0965143 5.08704779 -1.0522815 3.04316098 -1 1 C-0.67 0.67 -0.34 0.34 0 0 Z " fill="#1C94A3" transform="translate(414,250)"/>
<path d="M0 0 C1.1171875 3.71875 1.1171875 3.71875 0.0625 6.25 C-0.4634375 7.11625 -0.4634375 7.11625 -1 8 C1.31 8.33 3.62 8.66 6 9 C6 9.33 6 9.66 6 10 C2.97265625 10.24414062 2.97265625 10.24414062 -0.0546875 10.48828125 C-2.39519216 10.87393036 -2.39519216 10.87393036 -4 14 C-4.66 14 -5.32 14 -6 14 C-5.57202798 8.29370646 -3.15654048 4.58921384 0 0 Z " fill="#1992A2" transform="translate(337,254)"/>
<path d="M0 0 C0.99 0 1.98 0 3 0 C3 5.61 3 11.22 3 17 C2.01 17 1.02 17 0 17 C0 11.39 0 5.78 0 0 Z " fill="#0E8C9D" transform="translate(694,251)"/>
<path d="M0 0 C0.99 0.33 1.98 0.66 3 1 C3.6875 3.0625 3.6875 3.0625 4 5 C3.34 5 2.68 5 2 5 C2.33 6.98 2.66 8.96 3 11 C1.35 11 -0.3 11 -2 11 C-2.94693195 7.2983569 -3.30443767 5.60887535 -1.5625 2.125 C-1.046875 1.42375 -0.53125 0.7225 0 0 Z " fill="#2C9BAA" transform="translate(501,250)"/>
<path d="M0 0 C3 1 3 1 4.16796875 2.9609375 C4.50441406 3.75757813 4.84085937 4.55421875 5.1875 5.375 C5.53167969 6.16648437 5.87585938 6.95796875 6.23046875 7.7734375 C7 10 7 10 7 13 C4 12 4 12 2.625 10 C0.5759085 7.47804124 -0.84230107 7.34137286 -4 7 C-4 6.67 -4 6.34 -4 6 C-2.35 6 -0.7 6 1 6 C0.67 4.02 0.34 2.04 0 0 Z " fill="#2799A8" transform="translate(503,255)"/>
<path d="M0 0 C0.33 1.32 0.66 2.64 1 4 C2.65 4 4.3 4 6 4 C6.33 4.66 6.66 5.32 7 6 C4.36 6 1.72 6 -1 6 C-1.33 7.32 -1.66 8.64 -2 10 C-2.66 10 -3.32 10 -4 10 C-3.5205537 5.78087253 -2.83374881 3.20336822 0 0 Z " fill="#1590A0" transform="translate(665,258)"/>
<path d="M0 0 C0.66 0 1.32 0 2 0 C2.66 1.98 3.32 3.96 4 6 C2.35 6 0.7 6 -1 6 C-0.67 4.02 -0.34 2.04 0 0 Z " fill="#E9F4F6" transform="translate(338,255)"/>
<path d="M0 0 C0.66 0 1.32 0 2 0 C2.66 1.98 3.32 3.96 4 6 C2.02 6 0.04 6 -2 6 C-1.34 4.02 -0.68 2.04 0 0 Z " fill="#E9F5F6" transform="translate(668,255)"/>
<path d="M0 0 C0.33 0.99 0.66 1.98 1 3 C2.65 3.33 4.3 3.66 6 4 C6 4.66 6 5.32 6 6 C3.69 5.67 1.38 5.34 -1 5 C-0.67 3.35 -0.34 1.7 0 0 Z " fill="#138FA0" transform="translate(702,254)"/>
<path d="M0 0 C1.5 1.3125 1.5 1.3125 3 3 C3 3.99 3 4.98 3 6 C1.35 6 -0.3 6 -2 6 C-1.34 4.02 -0.68 2.04 0 0 Z " fill="#EFF7F8" transform="translate(501,255)"/>
<path d="M0 0 C2.31 0 4.62 0 7 0 C7.33 0.99 7.66 1.98 8 3 C5.03 3 2.06 3 -1 3 C-0.67 2.01 -0.34 1.02 0 0 Z " fill="#1E94A4" transform="translate(743,251)"/>
<path d="M0 0 C1.4540625 0.0309375 1.4540625 0.0309375 2.9375 0.0625 C2.9375 0.3925 2.9375 0.7225 2.9375 1.0625 C1.2875 1.3925 -0.3625 1.7225 -2.0625 2.0625 C-2.3925 3.7125 -2.7225 5.3625 -3.0625 7.0625 C-4.0525 6.4025 -5.0425 5.7425 -6.0625 5.0625 C-3.64893617 0.07446809 -3.64893617 0.07446809 0 0 Z " fill="#3BA2B0" transform="translate(707.0625,249.9375)"/>
<path d="M0 0 C2.97 0.33 5.94 0.66 9 1 C9 1.33 9 1.66 9 2 C7.35 2 5.7 2 4 2 C4 2.66 4 3.32 4 4 C2.68 3.67 1.36 3.34 0 3 C0 2.01 0 1.02 0 0 Z " fill="#44A6B3" transform="translate(738,264)"/>
<path d="M0 0 C0.99 0.33 1.98 0.66 3 1 C2.01 2.98 1.02 4.96 0 7 C-0.66 5.68 -1.32 4.36 -2 3 C-1.34 2.01 -0.68 1.02 0 0 Z " fill="#2B9AA9" transform="translate(652,256)"/>
<path d="M0 0 C0.99 0.33 1.98 0.66 3 1 C2.01 2.98 1.02 4.96 0 7 C-0.66 5.68 -1.32 4.36 -2 3 C-1.34 2.01 -0.68 1.02 0 0 Z " fill="#2B9AA9" transform="translate(598,256)"/>
</svg>
